<svg aria-hidden="true" xmlns="http://www.w3.org/2000/svg" overflow="hidden"><defs><symbol id="menu" viewBox="0 0 44 32">
<path d="M0 6h28v6h-28v-6zM0 14h28v6h-28v-6zM0 22h28v6h-28v-6z"></path>
</symbol><symbol id="close"><path d="M15 4.108L13.892 3 9.5 7.392 5.108 3 4 4.108 8.392 8.5 4 12.892 5.108 14 9.5 9.608 13.892 14 15 12.892 10.608 8.5 15 4.108z"/></symbol><symbol id="plus"><path d="M12.153.5V13m0 12.5V13m0 0H25 0"/></symbol><symbol id="clock" viewBox="0 0 32 32"><path d="M16 7a.997.997 0 00-1-1 .997.997 0 00-1 1v11a1.007 1.007 0 00.504.868l7 4a1 1 0 00.993-1.736l-6.496-3.712V7z"/><path d="M16 32a15.997 15.997 0 0016-16A15.997 15.997 0 0016 0 15.997 15.997 0 000 16a15.997 15.997 0 0016 16zm14-16a14.002 14.002 0 01-14 14 13.996 13.996 0 01-9.899-4.101 13.996 13.996 0 010-19.798A13.998 13.998 0 0130 16z"/></symbol><symbol id="email" viewBox="0 0 32 32"><path d="M29.128 5.524H4.364a.951.951 0 00-.951.951v19.05c0 .527.427.952.952.952h24.762a.952.952 0 00.952-.952V6.475a.951.951 0 00-.951-.951h-.002zm-1.19 3.297v15.512H5.556V8.821l-.821-.64 1.17-1.502 1.274.99h19.139l1.274-.99 1.17 1.502-.824.64zm-1.62-1.155l-9.571 7.441L5.902 6.676l-1.17 1.502 10.988 8.546c.279.219.635.351 1.022.351s.743-.132 1.026-.354l-.004.003 10.994-8.542-1.17-1.502-1.271.987z"/></symbol><symbol id="name" viewBox="0 0 32 32"><path d="M15.849 15.849a7.925 7.925 0 100-15.85 7.925 7.925 0 100 15.85zm5.283-7.924a5.283 5.283 0 11-10.566 0 5.283 5.283 0 1110.566 0zm10.566 21.132c0 2.642-2.642 2.642-2.642 2.642H2.641s-2.642 0-2.642-2.642 2.642-10.566 15.849-10.566 15.849 7.925 15.849 10.566zm-2.641-.011c-.002-.65-.407-2.605-2.198-4.395-1.722-1.723-4.963-3.519-11.01-3.519-6.049 0-9.288 1.796-11.01 3.519-1.791 1.791-2.192 3.745-2.198 4.395h26.415z"/></symbol><symbol id="phone" viewBox="0 0 32 32"><path d="M23.994 16.372c-.23-.23-.547-.372-.898-.372s-.668.142-.898.372l-2.025 2.025c-.939-.28-2.69-.914-3.799-2.025-1.111-1.109-1.745-2.86-2.025-3.799l2.025-2.024c.23-.23.372-.547.372-.898s-.142-.668-.372-.898l-5.08-5.079c-.23-.23-.547-.372-.898-.372s-.668.142-.898.372L6.054 7.118a2.528 2.528 0 00-.744 1.795v.029-.001c.029 1.807.507 8.088 5.457 13.038 4.951 4.951 11.23 5.428 13.041 5.458h.035a2.51 2.51 0 001.784-.744l3.444-3.444a1.267 1.267 0 000-1.796l-5.079-5.08zm-.162 8.522c-1.585-.026-7.006-.451-11.267-4.713-4.276-4.273-4.689-9.716-4.715-11.267l2.546-2.545 3.284 3.282-1.641 1.643a1.268 1.268 0 00-.345 1.167l-.002-.008c.03.146.777 3.608 2.885 5.717 2.107 2.107 5.57 2.853 5.716 2.883a1.254 1.254 0 001.158-.344l1.644-1.641 3.284 3.284-2.548 2.545z"/></symbol><symbol id="instagram" viewBox="0 0 32 32"><path d="M22.406 11.034a1.44 1.44 0 000-2.88 1.44 1.44 0 000 2.88zM16 9.838a6.162 6.162 0 000 12.324 6.162 6.162 0 000-12.324zM16 20a4 4 0 010-8 4 4 0 010 8z"/><path d="M16 6.162c3.204 0 3.584.012 4.849.07.76.009 1.514.149 2.228.413a4 4 0 012.269 2.251l.009.027c.253.661.403 1.425.413 2.224v.004c.058 1.265.07 1.645.07 4.85s-.012 3.583-.07 4.848a6.632 6.632 0 01-.428 2.274l.015-.046a4 4 0 01-2.251 2.269l-.027.009a6.502 6.502 0 01-2.224.413h-.004c-1.265.058-1.645.07-4.849.07s-3.584-.012-4.849-.07a6.628 6.628 0 01-2.274-.428l.046.015a4 4 0 01-2.269-2.251l-.009-.027a6.502 6.502 0 01-.413-2.224v-.004c-.058-1.265-.07-1.645-.07-4.849s.012-3.584.07-4.849c.009-.76.149-1.514.413-2.228a4 4 0 012.251-2.269l.027-.009a6.502 6.502 0 012.224-.413h.004c1.265-.058 1.645-.07 4.849-.07zM16 4c-3.259 0-3.668.014-4.948.072a8.81 8.81 0 00-2.912.558 6.173 6.173 0 00-3.496 3.468l-.014.042a8.645 8.645 0 00-.558 2.904v.009C4.014 12.333 4 12.74 4 16s.014 3.668.072 4.948c.02.995.209 1.98.558 2.912a6.173 6.173 0 003.468 3.496l.042.014c.932.35 1.917.538 2.913.558 1.28.058 1.688.072 4.947.072s3.668-.014 4.948-.072a8.811 8.811 0 002.973-.578l-.06.02a6.169 6.169 0 003.495-3.468l.015-.042a8.62 8.62 0 00.557-2.904v-.009C27.986 19.667 28 19.26 28 16s-.014-3.668-.072-4.948a8.805 8.805 0 00-.578-2.972l.02.06a6.169 6.169 0 00-3.468-3.495l-.042-.014a8.62 8.62 0 00-2.904-.557h-.009c-1.28-.06-1.687-.073-4.947-.073z"/></symbol><symbol id="facebook" viewBox="0 0 32 32"><path d="M32 16c0-8.839-7.167-16-16-16C7.161 0 0 7.161 0 16c0 7.984 5.849 14.604 13.5 15.803V20.626H9.437v-4.625H13.5v-3.527c0-4.009 2.385-6.223 6.041-6.223 1.751 0 3.584.312 3.584.312V10.5h-2.021c-1.984 0-2.604 1.235-2.604 2.5v3h4.437l-.713 4.625H18.5v11.177C26.145 30.603 32 23.983 32 15.999V16z"/></symbol><symbol id="telegram" viewBox="0 0 32 32"><path d="M16 .5C7.437.5.5 7.438.5 16S7.438 31.5 16 31.5c8.563 0 15.5-6.938 15.5-15.5S24.562.5 16 .5zm7.613 10.619l-2.544 11.988c-.188.85-.694 1.056-1.4.656l-3.875-2.856-1.869 1.8c-.206.206-.381.381-.781.381l.275-3.944 7.181-6.488c.313-.275-.069-.431-.482-.156l-8.875 5.587-3.825-1.194c-.831-.262-.85-.831.175-1.231l14.944-5.763c.694-.25 1.3.169 1.075 1.219l.001.001z"/></symbol><symbol id="viber" viewBox="0 0 32 32"><path d="M15.198.005C12.63.035 7.109.458 4.021 3.29 1.724 5.567.922 8.93.828 13.093.75 17.239.656 25.025 8.161 27.145v3.229s-.047 1.292.807 1.557c1.052.333 1.651-.661 2.651-1.73l1.865-2.108c5.135.427 9.068-.557 9.521-.703 1.042-.333 6.911-1.083 7.87-8.87.984-8.042-.479-13.11-3.12-15.401h-.016c-.797-.734-4-3.068-11.156-3.094 0 0-.531-.036-1.385-.021zm.088 2.26c.729-.004 1.172.027 1.172.027 6.057.016 8.948 1.839 9.63 2.453 2.224 1.906 3.37 6.474 2.531 13.188-.797 6.51-5.557 6.922-6.438 7.203-.375.12-3.839.974-8.203.693 0 0-3.25 3.922-4.266 4.932-.161.177-.349.229-.469.203-.172-.042-.224-.255-.214-.547l.031-5.36c-6.365-1.76-5.99-8.4-5.922-11.87.078-3.468.729-6.306 2.667-8.228 2.609-2.36 7.297-2.677 9.479-2.693h.002zm.48 3.469h-.004a.397.397 0 00-.397.396.4.4 0 00.401.4l.143-.001c2.035 0 3.881.809 5.234 2.123l-.002-.002c1.453 1.412 2.161 3.308 2.188 5.787a.4.4 0 00.401.4v-.015h.001a.4.4 0 00.4-.396 8.587 8.587 0 00-2.419-6.352l.002.002c-1.583-1.546-3.589-2.343-5.948-2.343zm-5.271.917a1.236 1.236 0 00-.823.164l.006-.003h-.021a6.327 6.327 0 00-1.52 1.25l-.006.007c-.365.422-.563.849-.615 1.26-.031.245-.01.49.063.724l.026.016c.411 1.208.948 2.37 1.604 3.464a20.497 20.497 0 003.102 4.237l-.008-.008.036.052.057.042.036.042.042.036a20.689 20.689 0 004.136 3.055l.104.054c1.76.958 2.828 1.41 3.469 1.599v.01c.188.057.359.083.531.083a2.448 2.448 0 001.471-.632l-.002.002c.494-.44.913-.957 1.24-1.531v-.01c.307-.578.203-1.125-.24-1.495a18.513 18.513 0 00-2.779-2.01l-.086-.047c-.682-.37-1.375-.146-1.656.229l-.599.755c-.307.375-.865.323-.865.323l-.016.01c-4.161-1.063-5.271-5.276-5.271-5.276s-.052-.573.333-.865l.75-.604c.359-.292.609-.984.224-1.667a18.063 18.063 0 00-2.069-2.885l.017.02a1.138 1.138 0 00-.665-.4l-.007-.001.002.002zm5.963 1.188c-.531 0-.531.802.005.802a5.013 5.013 0 013.53 1.529l.001.001a4.64 4.64 0 011.198 3.442l.001-.014a.403.403 0 00.401.396l.016.02a.405.405 0 00.401-.4c.036-1.59-.458-2.922-1.427-3.99-.974-1.068-2.333-1.667-4.068-1.786h-.057zm.657 2.156c-.547-.016-.568.802-.026.818 1.318.068 1.958.734 2.042 2.104.004.216.18.389.396.39h.016a.404.404 0 00.386-.403l-.001-.024v.001c-.094-1.786-1.068-2.792-2.797-2.885h-.016v-.001z"/></symbol><symbol id="whatsapp" viewBox="0 0 32 32"><path d="M23.328 19.177c-.401-.203-2.354-1.156-2.719-1.292-.365-.13-.63-.198-.896.203-.26.391-1.026 1.286-1.26 1.547s-.464.281-.859.104c-.401-.203-1.682-.62-3.203-1.984-1.188-1.057-1.979-2.359-2.214-2.76-.234-.396-.026-.62.172-.818.182-.182.401-.458.604-.698.193-.24.255-.401.396-.661.13-.281.063-.5-.036-.698s-.896-2.161-1.229-2.943c-.318-.776-.651-.677-.896-.677-.229-.021-.495-.021-.76-.021s-.698.099-1.063.479c-.365.401-1.396 1.359-1.396 3.297 0 1.943 1.427 3.823 1.625 4.104.203.26 2.807 4.26 6.802 5.979.953.401 1.693.641 2.271.839.953.302 1.823.26 2.51.161.76-.125 2.354-.964 2.688-1.901.339-.943.339-1.724.24-1.901-.099-.182-.359-.281-.76-.458l-.017.099zM16.083 29h-.021c-2.365 0-4.703-.641-6.745-1.839l-.479-.286-5 1.302 1.344-4.865-.323-.5a13.038 13.038 0 01-2.021-7.009v-.001c0-7.26 5.943-13.182 13.255-13.182 3.542 0 6.865 1.38 9.365 3.88a13.018 13.018 0 013.88 9.288v.036-.002c-.01 7.255-5.948 13.177-13.25 13.177h-.005zM27.359 4.599C24.317 1.661 20.317 0 16.062 0 7.286 0 .14 7.115.135 15.859c0 2.792.729 5.516 2.125 7.927L0 32l8.448-2.203c2.202 1.21 4.824 1.925 7.613 1.932h.007c8.781 0 15.927-7.115 15.932-15.865 0-4.234-1.651-8.219-4.661-11.214l.02-.051z"/></symbol><symbol id="age" viewBox="0 0 32 32"><path d="M32 19.851l-3.851-7.701-3.851 7.701h2.593c-1.632 5.097-6.407 8.801-12.041 8.801-6.976 0-12.652-5.676-12.652-12.652S7.874 3.348 14.85 3.348c5.375 0 9.968 3.375 11.796 8.114l1.264-2.529C25.394 4.3 20.484 1.148 14.85 1.148 6.661 1.148-.003 7.811-.003 16.001S6.66 30.854 14.85 30.854c6.857 0 12.631-4.675 14.333-11.002h2.815z"/><path d="M6.967 18.964h1.391l.422-1.522h1.697l.458 1.522h1.442l-1.838-5.928h-1.76l-1.813 5.928zm2.359-3.782c.096-.344.185-.792.273-1.144h.017c.088.352.194.793.299 1.144l.37 1.259H8.973l.351-1.259zm6.722-1.1c.65 0 1.055.114 1.381.254l.282-1.073c-.29-.14-.88-.291-1.645-.291-1.944 0-3.377 1.126-3.387 3.096-.008.871.29 1.644.837 2.155.545.528 1.328.8 2.41.8.781 0 1.566-.193 1.978-.334v-3.122h-2.207v1.046h.916v1.239c-.106.054-.353.088-.661.088-1.1 0-1.865-.722-1.865-1.945 0-1.283.843-1.915 1.962-1.915zm6.566.054v-1.099h-3.659v5.927h3.782v-1.099H20.3v-1.407h2.182v-1.092H20.3v-1.231h2.313z"/></symbol><symbol id="logo" viewBox="0 0 41 32"><path fill="none" stroke="var(--color3, #bf3929)" stroke-width="1.067" d="M.002 17.778h4.622l1.244-4.8L8.89 31.645 11.557.889 13.513 20.8l1.6-3.022h24.889"/><path d="M15.187 15.822v-5.031h.931v2.156h.018l1.85-2.156h1.169l-1.956 2.206 1.988 2.825h-1.119l-1.456-2.169-.494.563v1.606h-.932zm5.472-1.931h1.381l-.369-1.188c.091.394-.012.057-.113-.282l-.187-.731h-.038c-.033.121-.085.296-.156.525-.067.229-.114.392-.144.487l-.375 1.188zm-1.607 1.931l1.8-5.031h1l1.8 5.031h-.988l-.381-1.188h-1.862l-.382 1.188h-.987zm4.966 0v-5.031h1.988c.538 0 .954.144 1.25.431.3.288.45.665.45 1.131 0 .484-.154.865-.462 1.144-.304.275-.71.412-1.219.412H24.95v1.913h-.931zm.931-2.706h.944c.271 0 .481-.065.631-.194.15-.133.225-.323.225-.569s-.073-.433-.219-.563c-.146-.133-.358-.2-.637-.2h-.944v1.525zm3.36 2.706v-5.031h.932v4.238h2.244v.794H28.31zm4.841-1.931h1.381l-.369-1.188c-.083-.275-.183-.612-.3-1.012h-.038c-.033.121-.085.296-.156.525-.066.229-.114.392-.144.487l-.375 1.188zm-1.607 1.931l1.8-5.031h1l1.8 5.031h-.988l-.381-1.188h-1.862l-.382 1.188h-.987zm4.966 0v-5.031h.956l1.419 2.625.544 1.013h.031c-.063-.439-.1-.946-.1-1.462v-2.175h.931v5.031h-.956l-1.412-2.556-.556-1.056h-.025c.067.462.1.95.1 1.462v2.15h-.931zm-19.535 4.67c0-.44.113-.788.34-1.045.227-.259.52-.389.879-.389.231 0 .43.064.594.191.167.127.291.284.372.472l-.393.128c-.148-.266-.341-.399-.58-.399a.633.633 0 00-.542.284c-.132.188-.198.44-.198.757 0 .322.067.576.201.764s.314.281.538.281a.601.601 0 00.385-.132.759.759 0 00.246-.323l.41.128a1.245 1.245 0 01-.138.247l.003-.004a1.41 1.41 0 01-.205.229.935.935 0 01-.296.178l-.006.002a1.113 1.113 0 01-.382.066h-.011.001a1.13 1.13 0 01-.875-.382c-.229-.257-.344-.609-.344-1.056zm3.163.326h.82l-.233-.712c-.045-.152-.064-.208-.083-.265l.028.094c-.048-.173-.07-.241-.091-.309l.029.104a4.308 4.308 0 00-.058-.207l.01.038h-.021l-.166.545-.233.712zm-.833 1.049l.993-2.747h.503l.989 2.747h-.486l-.226-.681h-1.062l-.225.681h-.486zm3.239-1.487h.577c.155 0 .274-.038.357-.114s.125-.186.125-.33a.393.393 0 00-.128-.306.523.523 0 00-.365-.118h-.566v.868zm-.458 1.487V19.12h1.111c.283 0 .499.074.65.222a.742.742 0 01.229.556c0 .187-.042.34-.125.458s-.18.198-.288.24c.088.06.15.124.187.191s.068.169.094.306c.061.292.164.551.305.785l-.006-.011h-.511a2.482 2.482 0 01-.267-.74.615.615 0 00-.114-.267c-.049-.06-.126-.09-.233-.09h-.573v1.097h-.458zm2.493 0V19.12h.816c.414 0 .734.118.958.355s.337.575.337 1.017c0 .151-.014.292-.042.424-.031.14-.078.264-.142.378l.004-.007c-.063.118-.142.22-.24.306a1.11 1.11 0 01-.364.199l-.008.002c-.144.046-.31.073-.482.073h-.027.001-.812zm.459-.386h.302c.583 0 .875-.33.875-.989 0-.352-.076-.603-.229-.754-.153-.153-.366-.229-.639-.229h-.309v1.972zm2.1.386V19.12h.459v2.747h-.459zm.907-1.372c0-.431.107-.778.323-1.042s.501-.396.858-.396.641.132.854.396c.215.262.323.609.323 1.042s-.108.78-.323 1.042c-.215.261-.5.392-.854.392-.356 0-.642-.131-.858-.393s-.323-.609-.323-1.042zm.472 0c0 .321.063.576.188.764a.6.6 0 00.521.278.587.587 0 00.514-.278c.127-.185.191-.44.191-.764 0-.32-.063-.573-.187-.761a.584.584 0 00-.518-.284.598.598 0 00-.521.284c-.125.188-.188.441-.188.761zm2.34 1.372V19.12h.459v2.358h1.243v.389h-1.701zm1.802-1.372c0-.431.107-.778.323-1.042s.501-.396.858-.396.641.132.854.396c.215.262.323.609.323 1.042s-.108.78-.323 1.042c-.215.261-.5.392-.854.392-.357 0-.642-.131-.858-.393s-.323-.609-.323-1.042zm.472 0c0 .321.063.576.187.764a.6.6 0 00.521.278.587.587 0 00.514-.278c.127-.185.191-.44.191-.764 0-.32-.062-.573-.187-.761a.584.584 0 00-.517-.284.597.597 0 00-.521.284c-.125.188-.187.441-.187.761zm2.177-.003c0-.419.112-.763.337-1.031s.526-.403.903-.403c.141 0 .271.023.389.069.12.046.22.107.299.181.079.072.141.141.187.208.049.065.088.131.118.198l-.392.129c-.045-.07-.09-.13-.138-.187l.002.003a.58.58 0 00-.184-.139.554.554 0 00-.271-.07h-.007c-.241 0-.429.095-.566.284s-.205.442-.205.757c0 .322.069.576.208.764s.319.281.541.281c.192 0 .343-.055.452-.167s.17-.252.184-.423a3.98 3.98 0 00.011-.226h-.674v-.389h1.118v1.535h-.316l-.042-.281c-.15.229-.399.344-.747.344s-.635-.13-.864-.389c-.229-.262-.344-.611-.344-1.049zm2.406-1.372h.524l.423.809c.107.208.182.359.226.452h.014c.051-.097.127-.248.229-.452l.42-.809h.528l-.951 1.632v1.115h-.458v-1.115l-.955-1.632z"/></symbol></defs></svg>